<svg width="48" height="48" viewBox="0 0 48 48" fill="none" xmlns="http://www.w3.org/2000/svg">
<rect width="48" height="48" fill="#DC2626"/>
<path d="M14.25 20.25H33.75M14.25 21H33.75M17.25 26.25H23.25M17.25 28.5H20.25M16.5 31.5H31.5C32.0967 31.5 32.669 31.2629 33.091 30.841C33.5129 30.419 33.75 29.8467 33.75 29.25V18.75C33.75 18.1533 33.5129 17.581 33.091 17.159C32.669 16.7371 32.0967 16.5 31.5 16.5H16.5C15.9033 16.5 15.331 16.7371 14.909 17.159C14.4871 17.581 14.25 18.1533 14.25 18.75V29.25C14.25 29.8467 14.4871 30.419 14.909 30.841C15.331 31.2629 15.9033 31.5 16.5 31.5Z" stroke="white" stroke-width="1.5" stroke-linecap="round" stroke-linejoin="round"/>
</svg>
